<?xml version="1.0" encoding="UTF-8" standalone="no"?>
<!DOCTYPE svg PUBLIC "-//W3C//DTD SVG 1.1//EN" "http://www.w3.org/Graphics/SVG/1.1/DTD/svg11.dtd">
<svg width="100%" height="100%" viewBox="0 0 1481 678" version="1.1" xmlns="http://www.w3.org/2000/svg" xmlns:xlink="http://www.w3.org/1999/xlink" xml:space="preserve" xmlns:serif="http://www.serif.com/" style="fill-rule:evenodd;clip-rule:evenodd;stroke-linejoin:round;stroke-miterlimit:2;">
    <g transform="matrix(1,0,0,1,-133.668,-297.809)">
        <g transform="matrix(2.17625,0,0,2.17625,-818.853,-176.778)">
            <g transform="matrix(4.35467,0,0,4.35467,-1514.9,-1433.11)">
                <g transform="matrix(1,0,0,1,-2.06675,0)">
                    <path d="M450.457,416.675L450.457,381.128L461.907,381.128C465.049,381.128 467.872,381.84 470.379,383.265C472.885,384.689 474.843,386.699 476.251,389.295C477.658,391.891 478.371,394.8 478.387,398.023L478.387,399.659C478.387,402.914 477.699,405.831 476.324,408.411C474.948,410.991 473.012,413.009 470.513,414.466C468.015,415.922 465.228,416.659 462.151,416.675L450.457,416.675ZM459.026,387.745L459.026,410.083L462.005,410.083C464.463,410.083 466.351,409.209 467.669,407.459C468.987,405.709 469.647,403.109 469.647,399.659L469.647,398.121C469.647,394.686 468.987,392.098 467.669,390.357C466.351,388.615 464.43,387.745 461.907,387.745L459.026,387.745Z" style="fill-rule:nonzero;"/>
                </g>
                <g transform="matrix(1,0,0,1,-2.06675,0)">
                    <path d="M504.827,401.612L491.351,401.612L491.351,410.083L507.269,410.083L507.269,416.675L482.781,416.675L482.781,381.128L507.317,381.128L507.317,387.745L491.351,387.745L491.351,395.24L504.827,395.24L504.827,401.612Z" style="fill-rule:nonzero;"/>
                </g>
                <g transform="matrix(1,0,0,1,3.44458,0)">
                    <path d="M527.606,416.675L524.676,416.675L524.676,390.259L527.606,390.259L527.606,416.675ZM524.163,382.618C524.163,382.064 524.342,381.596 524.7,381.214C525.058,380.831 525.547,380.64 526.165,380.64C526.784,380.64 527.276,380.831 527.642,381.214C528.008,381.596 528.191,382.064 528.191,382.618C528.191,383.171 528.008,383.635 527.642,384.009C527.276,384.384 526.784,384.571 526.165,384.571C525.547,384.571 525.058,384.384 524.7,384.009C524.342,383.635 524.163,383.171 524.163,382.618Z" style="fill-rule:nonzero;"/>
                </g>
                <g transform="matrix(1,0,0,1,3.44458,0)">
                    <path d="M534.368,403.223C534.368,399.089 535.284,395.813 537.115,393.396C538.946,390.979 541.432,389.771 544.573,389.771C548.17,389.771 550.905,391.203 552.776,394.068L552.923,390.259L555.657,390.259L555.657,416.138C555.657,419.54 554.705,422.234 552.801,424.219C550.897,426.205 548.317,427.198 545.062,427.198C543.222,427.198 541.469,426.787 539.8,425.965C538.132,425.143 536.818,424.048 535.858,422.681L537.493,420.923C539.56,423.462 542.018,424.732 544.866,424.732C547.308,424.732 549.212,424.012 550.579,422.571C551.946,421.131 552.654,419.133 552.703,416.578L552.703,413.257C550.831,415.861 548.105,417.164 544.524,417.164C541.465,417.164 539.007,415.943 537.151,413.501C535.296,411.06 534.368,407.764 534.368,403.614L534.368,403.223ZM537.322,403.736C537.322,407.105 537.998,409.762 539.349,411.707C540.7,413.652 542.604,414.624 545.062,414.624C548.659,414.624 551.206,413.013 552.703,409.79L552.703,397.51C552.02,395.818 551.035,394.528 549.749,393.641C548.463,392.754 546.917,392.31 545.11,392.31C542.653,392.31 540.74,393.274 539.373,395.203C538.006,397.132 537.322,399.976 537.322,403.736Z" style="fill-rule:nonzero;"/>
                </g>
                <g transform="matrix(1,0,0,1,3.44458,0)">
                    <path d="M566.18,394.727C567.14,393.148 568.369,391.928 569.866,391.065C571.364,390.202 572.999,389.771 574.774,389.771C577.606,389.771 579.713,390.568 581.097,392.164C582.48,393.759 583.18,396.151 583.196,399.341L583.196,416.675L580.291,416.675L580.291,399.317C580.275,396.957 579.774,395.199 578.79,394.043C577.805,392.888 576.23,392.31 574.066,392.31C572.259,392.31 570.66,392.876 569.268,394.007C567.877,395.138 566.847,396.664 566.18,398.584L566.18,416.675L563.274,416.675L563.274,379.175L566.18,379.175L566.18,394.727Z" style="fill-rule:nonzero;"/>
                </g>
                <g transform="matrix(1,0,0,1,3.44458,0)">
                    <path d="M595.257,383.497L595.257,390.259L600.726,390.259L600.726,392.652L595.257,392.652L595.257,410.254C595.257,411.719 595.521,412.81 596.05,413.526C596.579,414.242 597.462,414.6 598.699,414.6C599.188,414.6 599.977,414.519 601.067,414.356L601.19,416.748C600.425,417.025 599.383,417.164 598.065,417.164C596.063,417.164 594.606,416.582 593.694,415.418C592.783,414.254 592.327,412.541 592.327,410.279L592.327,392.652L587.469,392.652L587.469,390.259L592.327,390.259L592.327,383.497L595.257,383.497Z" style="fill-rule:nonzero;"/>
                </g>
            </g>
            <g transform="matrix(0.459507,0,0,0.459507,376.268,81.2305)">
                <path d="M752.774,316.312C754.321,316.163 756.512,315.985 758.135,315.989C760.9,315.994 763.858,316.074 766.931,316.074C770.004,316.074 772.962,315.994 775.727,315.989C777.349,315.985 779.541,316.163 781.087,316.312L781.087,541.728C781.087,584.378 780.193,628.599 786.093,670.035C794.46,728.794 816.705,781.915 877.841,814.952C895.515,824.502 910.127,830.39 929.384,836.181C959.107,845.118 985.62,849.914 1015.51,852.234C1016.32,861.84 1016.81,871.318 1017.12,880.726C984.054,878.355 954.018,873.153 921.231,863.294C899.989,856.906 883.876,850.395 864.381,839.86C805.608,808.1 777.5,760.58 764.224,706.359C751.602,654.811 752.774,597.005 752.774,541.728L752.774,316.312Z"/>
            </g>
            <g transform="matrix(1.87259,0,0,1.50404,-875.755,-638.91)">
                <path d="M921.284,738.528C921.284,738.528 917.77,729.1 920.768,729.479C925.611,730.092 950.236,740.397 950.339,742.202C950.442,744.008 927.154,757.196 922.402,758.188C919.123,758.873 921.832,748.155 921.832,748.155C922.025,747.379 921.54,739.307 921.284,738.528Z"/>
            </g>
            <g transform="matrix(0.741638,0,0,0.741638,151.245,-145.65)">
                <g transform="matrix(2.24902,0,0,2.24902,-791.49,-615.77)">
                    <circle cx="659.797" cy="627.918" r="23.1" style="fill:rgb(0,170,201);"/>
                </g>
                <g transform="matrix(2.24902,0,0,2.24902,-765.427,-583.044)">
                    <circle cx="659.797" cy="627.918" r="23.1" style="fill:rgb(0,100,119);"/>
                </g>
                <g transform="matrix(2.24902,0,0,2.24902,-853.822,-596.767)">
                    <circle cx="659.797" cy="627.918" r="23.1" style="fill:rgb(0,100,119);"/>
                </g>
                <g transform="matrix(2.24902,0,0,2.24902,-818.015,-553.852)">
                    <circle cx="659.797" cy="627.918" r="23.1" style="fill:rgb(0,169,200);"/>
                </g>
            </g>
        </g>
    </g>
</svg>
